<?xml version="1.0" encoding="UTF-8" standalone="no"?><svg xmlns="http://www.w3.org/2000/svg" xmlns:xlink="http://www.w3.org/1999/xlink" clip-rule="evenodd" stroke-miterlimit="4.00" viewBox="0 0 1920 1080"><desc>SVG generated by Keynote</desc><defs></defs><g transform="matrix(1.00, 0.00, -0.00, -1.00, 0.0, 1080.0)"><g><clipPath id="clip-8"><path d="M 0.0 1080.0 L 1920.0 1080.0 L 1920.0 0.0 L 0.0 0.0 Z M 0.0 1080.0 "></path></clipPath><g clip-path="url(#clip-8)"><image xlink:href="../../06DBE9C8-52A0-453A-A7BF-EBF58CF01F35/assets/54F498DCE8E9310272AD5A0F2668F575.jpeg" width="1365.00" height="1023.00" transform="matrix(1.41, 0.00, -0.00, -1.06, 0.0, 1080.0)"></image></g></g><text xml:space="preserve" font-family="Helvetica-Light" font-size="112.0" fill="#FEFFFF" transform="matrix(1.00, 0.00, -0.00, -1.00, 743.0, 876.0)">F</text><text xml:space="preserve" font-family="Helvetica-Light" font-size="112.0" fill="#FEFFFF" transform="matrix(1.00, 0.00, -0.00, -1.00, 805.3, 876.0)">e</text><text xml:space="preserve" font-family="Helvetica-Light" font-size="112.0" fill="#FEFFFF" transform="matrix(1.00, 0.00, -0.00, -1.00, 867.5, 876.0)">a</text><text xml:space="preserve" font-family="Helvetica-Light" font-size="112.0" fill="#FEFFFF" transform="matrix(1.00, 0.00, -0.00, -1.00, 929.8, 876.0)">t</text><text xml:space="preserve" font-family="Helvetica-Light" font-size="112.0" fill="#FEFFFF" transform="matrix(1.00, 0.00, -0.00, -1.00, 961.0, 876.0)">u</text><text xml:space="preserve" font-family="Helvetica-Light" font-size="112.0" fill="#FEFFFF" transform="matrix(1.00, 0.00, -0.00, -1.00, 1023.2, 876.0)">r</text><text xml:space="preserve" font-family="Helvetica-Light" font-size="112.0" fill="#FEFFFF" transform="matrix(1.00, 0.00, -0.00, -1.00, 1058.5, 876.0)">e</text><text xml:space="preserve" font-family="Helvetica-Light" font-size="112.0" fill="#FEFFFF" transform="matrix(1.00, 0.00, -0.00, -1.00, 1120.8, 876.0)">s</text><text xml:space="preserve" font-family="Helvetica-Light" font-size="39.0" fill="#FEFFFF" transform="matrix(1.00, 0.00, -0.00, -1.00, 351.1, 672.3)">•</text><text xml:space="preserve" font-family="Helvetica-Light" font-size="52.0" fill="#FEFFFF" transform="matrix(1.00, 0.00, -0.00, -1.00, 400.0, 668.0)">F</text><text xml:space="preserve" font-family="Helvetica-Light" font-size="52.0" fill="#FEFFFF" transform="matrix(1.00, 0.00, -0.00, -1.00, 428.9, 668.0)">a</text><text xml:space="preserve" font-family="Helvetica-Light" font-size="52.0" fill="#FEFFFF" transform="matrix(1.00, 0.00, -0.00, -1.00, 457.8, 668.0)">s</text><text xml:space="preserve" font-family="Helvetica-Light" font-size="52.0" fill="#FEFFFF" transform="matrix(1.00, 0.00, -0.00, -1.00, 483.8, 668.0)">t</text><text xml:space="preserve" font-family="Helvetica-Light" font-size="52.0" fill="#FEFFFF" transform="matrix(1.00, 0.00, -0.00, -1.00, 498.3, 668.0)"> </text><text xml:space="preserve" font-family="Helvetica-Light" font-size="52.0" fill="#FEFFFF" transform="matrix(1.00, 0.00, -0.00, -1.00, 512.7, 668.0)">(</text><text xml:space="preserve" font-family="Helvetica-Light" font-size="52.0" fill="#FEFFFF" transform="matrix(1.00, 0.00, -0.00, -1.00, 530.1, 668.0)">2</text><text xml:space="preserve" font-family="Helvetica-Light" font-size="52.0" fill="#FEFFFF" transform="matrix(1.00, 0.00, -0.00, -1.00, 559.0, 668.0)">-</text><text xml:space="preserve" font-family="Helvetica-Light" font-size="52.0" fill="#FEFFFF" transform="matrix(1.00, 0.00, -0.00, -1.00, 576.3, 668.0)">1</text><text xml:space="preserve" font-family="Helvetica-Light" font-size="52.0" fill="#FEFFFF" transform="matrix(1.00, 0.00, -0.00, -1.00, 605.2, 668.0)">0</text><text xml:space="preserve" font-family="Helvetica-Light" font-size="52.0" fill="#FEFFFF" transform="matrix(1.00, 0.00, -0.00, -1.00, 634.1, 668.0)">x</text><text xml:space="preserve" font-family="Helvetica-Light" font-size="52.0" fill="#FEFFFF" transform="matrix(1.00, 0.00, -0.00, -1.00, 660.1, 668.0)">)</text><text xml:space="preserve" font-family="Helvetica-Light" font-size="52.0" fill="#FEFFFF" transform="matrix(1.00, 0.00, -0.00, -1.00, 677.4, 668.0)"> </text><text xml:space="preserve" font-family="Helvetica-Light" font-size="39.0" fill="#FEFFFF" transform="matrix(1.00, 0.00, -0.00, -1.00, 351.1, 551.2)">•</text><text xml:space="preserve" font-family="Helvetica-Light" font-size="52.0" fill="#FEFFFF" transform="matrix(1.00, 0.00, -0.00, -1.00, 400.0, 547.0)">C</text><text xml:space="preserve" font-family="Helvetica-Light" font-size="52.0" fill="#FEFFFF" transform="matrix(1.00, 0.00, -0.00, -1.00, 437.5, 547.0)">r</text><text xml:space="preserve" font-family="Helvetica-Light" font-size="52.0" fill="#FEFFFF" transform="matrix(1.00, 0.00, -0.00, -1.00, 453.9, 547.0)">o</text><text xml:space="preserve" font-family="Helvetica-Light" font-size="52.0" fill="#FEFFFF" transform="matrix(1.00, 0.00, -0.00, -1.00, 482.8, 547.0)">s</text><text xml:space="preserve" font-family="Helvetica-Light" font-size="52.0" fill="#FEFFFF" transform="matrix(1.00, 0.00, -0.00, -1.00, 508.8, 547.0)">s</text><text xml:space="preserve" font-family="Helvetica-Light" font-size="52.0" fill="#FEFFFF" transform="matrix(1.00, 0.00, -0.00, -1.00, 534.8, 547.0)">-</text><text xml:space="preserve" font-family="Helvetica-Light" font-size="52.0" fill="#FEFFFF" transform="matrix(1.00, 0.00, -0.00, -1.00, 552.2, 547.0)">P</text><text xml:space="preserve" font-family="Helvetica-Light" font-size="52.0" fill="#FEFFFF" transform="matrix(1.00, 0.00, -0.00, -1.00, 583.9, 547.0)">l</text><text xml:space="preserve" font-family="Helvetica-Light" font-size="52.0" fill="#FEFFFF" transform="matrix(1.00, 0.00, -0.00, -1.00, 595.5, 547.0)">a</text><text xml:space="preserve" font-family="Helvetica-Light" font-size="52.0" fill="#FEFFFF" transform="matrix(1.00, 0.00, -0.00, -1.00, 624.4, 547.0)">t</text><text xml:space="preserve" font-family="Helvetica-Light" font-size="52.0" fill="#FEFFFF" transform="matrix(1.00, 0.00, -0.00, -1.00, 638.8, 547.0)">f</text><text xml:space="preserve" font-family="Helvetica-Light" font-size="52.0" fill="#FEFFFF" transform="matrix(1.00, 0.00, -0.00, -1.00, 653.3, 547.0)">o</text><text xml:space="preserve" font-family="Helvetica-Light" font-size="52.0" fill="#FEFFFF" transform="matrix(1.00, 0.00, -0.00, -1.00, 682.2, 547.0)">r</text><text xml:space="preserve" font-family="Helvetica-Light" font-size="52.0" fill="#FEFFFF" transform="matrix(1.00, 0.00, -0.00, -1.00, 700.5, 547.0)">m</text><text xml:space="preserve" font-family="Helvetica-Light" font-size="52.0" fill="#FEFFFF" transform="matrix(1.00, 0.00, -0.00, -1.00, 743.8, 547.0)"> </text><text xml:space="preserve" font-family="Helvetica-Light" font-size="52.0" fill="#FEFFFF" transform="matrix(1.00, 0.00, -0.00, -1.00, 758.2, 547.0)">(</text><text xml:space="preserve" font-family="Helvetica-Light" font-size="52.0" fill="#FEFFFF" transform="matrix(1.00, 0.00, -0.00, -1.00, 775.5, 547.0)">i</text><text xml:space="preserve" font-family="Helvetica-Light" font-size="52.0" fill="#FEFFFF" transform="matrix(1.00, 0.00, -0.00, -1.00, 787.1, 547.0)">O</text><text xml:space="preserve" font-family="Helvetica-Light" font-size="52.0" fill="#FEFFFF" transform="matrix(1.00, 0.00, -0.00, -1.00, 827.5, 547.0)">S</text><text xml:space="preserve" font-family="Helvetica-Light" font-size="52.0" fill="#FEFFFF" transform="matrix(1.00, 0.00, -0.00, -1.00, 859.3, 547.0)"> </text><text xml:space="preserve" font-family="Helvetica-Light" font-size="52.0" fill="#FEFFFF" transform="matrix(1.00, 0.00, -0.00, -1.00, 873.8, 547.0)">8</text><text xml:space="preserve" font-family="Helvetica-Light" font-size="52.0" fill="#FEFFFF" transform="matrix(1.00, 0.00, -0.00, -1.00, 902.7, 547.0)">.</text><text xml:space="preserve" font-family="Helvetica-Light" font-size="52.0" fill="#FEFFFF" transform="matrix(1.00, 0.00, -0.00, -1.00, 917.1, 547.0)">0</text><text xml:space="preserve" font-family="Helvetica-Light" font-size="52.0" fill="#FEFFFF" transform="matrix(1.00, 0.00, -0.00, -1.00, 946.1, 547.0)">+</text><text xml:space="preserve" font-family="Helvetica-Light" font-size="52.0" fill="#FEFFFF" transform="matrix(1.00, 0.00, -0.00, -1.00, 980.4, 547.0)">,</text><text xml:space="preserve" font-family="Helvetica-Light" font-size="52.0" fill="#FEFFFF" transform="matrix(1.00, 0.00, -0.00, -1.00, 994.8, 547.0)"> </text><text xml:space="preserve" font-family="Helvetica-Light" font-size="52.0" fill="#FEFFFF" transform="matrix(1.00, 0.00, -0.00, -1.00, 1009.3, 547.0)">R</text><text xml:space="preserve" font-family="Helvetica-Light" font-size="52.0" fill="#FEFFFF" transform="matrix(1.00, 0.00, -0.00, -1.00, 1044.0, 547.0)">e</text><text xml:space="preserve" font-family="Helvetica-Light" font-size="52.0" fill="#FEFFFF" transform="matrix(1.00, 0.00, -0.00, -1.00, 1072.9, 547.0)">a</text><text xml:space="preserve" font-family="Helvetica-Light" font-size="52.0" fill="#FEFFFF" transform="matrix(1.00, 0.00, -0.00, -1.00, 1101.8, 547.0)">c</text><text xml:space="preserve" font-family="Helvetica-Light" font-size="52.0" fill="#FEFFFF" transform="matrix(1.00, 0.00, -0.00, -1.00, 1130.7, 547.0)">t</text><text xml:space="preserve" font-family="Helvetica-Light" font-size="52.0" fill="#FEFFFF" transform="matrix(1.00, 0.00, -0.00, -1.00, 1145.2, 547.0)"> </text><text xml:space="preserve" font-family="Helvetica-Light" font-size="52.0" fill="#FEFFFF" transform="matrix(1.00, 0.00, -0.00, -1.00, 1159.6, 547.0)">N</text><text xml:space="preserve" font-family="Helvetica-Light" font-size="52.0" fill="#FEFFFF" transform="matrix(1.00, 0.00, -0.00, -1.00, 1197.2, 547.0)">a</text><text xml:space="preserve" font-family="Helvetica-Light" font-size="52.0" fill="#FEFFFF" transform="matrix(1.00, 0.00, -0.00, -1.00, 1226.1, 547.0)">t</text><text xml:space="preserve" font-family="Helvetica-Light" font-size="52.0" fill="#FEFFFF" transform="matrix(1.00, 0.00, -0.00, -1.00, 1240.5, 547.0)">i</text><text xml:space="preserve" font-family="Helvetica-Light" font-size="52.0" fill="#FEFFFF" transform="matrix(1.00, 0.00, -0.00, -1.00, 1252.1, 547.0)">v</text><text xml:space="preserve" font-family="Helvetica-Light" font-size="52.0" fill="#FEFFFF" transform="matrix(1.00, 0.00, -0.00, -1.00, 1278.1, 547.0)">e</text><text xml:space="preserve" font-family="Helvetica-Light" font-size="52.0" fill="#FEFFFF" transform="matrix(1.00, 0.00, -0.00, -1.00, 1307.0, 547.0)"> </text><text xml:space="preserve" font-family="Helvetica-Light" font-size="52.0" fill="#FEFFFF" transform="matrix(1.00, 0.00, -0.00, -1.00, 1321.4, 547.0)">0</text><text xml:space="preserve" font-family="Helvetica-Light" font-size="52.0" fill="#FEFFFF" transform="matrix(1.00, 0.00, -0.00, -1.00, 1350.4, 547.0)">.</text><text xml:space="preserve" font-family="Helvetica-Light" font-size="52.0" fill="#FEFFFF" transform="matrix(1.00, 0.00, -0.00, -1.00, 1364.8, 547.0)">2</text><text xml:space="preserve" font-family="Helvetica-Light" font-size="52.0" fill="#FEFFFF" transform="matrix(1.00, 0.00, -0.00, -1.00, 1393.7, 547.0)">0</text><text xml:space="preserve" font-family="Helvetica-Light" font-size="52.0" fill="#FEFFFF" transform="matrix(1.00, 0.00, -0.00, -1.00, 1422.6, 547.0)">.</text><text xml:space="preserve" font-family="Helvetica-Light" font-size="52.0" fill="#FEFFFF" transform="matrix(1.00, 0.00, -0.00, -1.00, 1437.1, 547.0)">0</text><text xml:space="preserve" font-family="Helvetica-Light" font-size="52.0" fill="#FEFFFF" transform="matrix(1.00, 0.00, -0.00, -1.00, 1466.0, 547.0)">+</text><text xml:space="preserve" font-family="Helvetica-Light" font-size="52.0" fill="#FEFFFF" transform="matrix(1.00, 0.00, -0.00, -1.00, 1500.3, 547.0)">)</text><text xml:space="preserve" font-family="Helvetica-Light" font-size="52.0" fill="#FEFFFF" transform="matrix(1.00, 0.00, -0.00, -1.00, 1517.6, 547.0)"> </text><text xml:space="preserve" font-family="Helvetica-Light" font-size="39.0" fill="#FEFFFF" transform="matrix(1.00, 0.00, -0.00, -1.00, 351.1, 430.1)">•</text><text xml:space="preserve" font-family="Helvetica-Light" font-size="52.0" fill="#FEFFFF" transform="matrix(1.00, 0.00, -0.00, -1.00, 400.0, 426.0)">S</text><text xml:space="preserve" font-family="Helvetica-Light" font-size="52.0" fill="#FEFFFF" transform="matrix(1.00, 0.00, -0.00, -1.00, 431.8, 426.0)">i</text><text xml:space="preserve" font-family="Helvetica-Light" font-size="52.0" fill="#FEFFFF" transform="matrix(1.00, 0.00, -0.00, -1.00, 443.3, 426.0)">m</text><text xml:space="preserve" font-family="Helvetica-Light" font-size="52.0" fill="#FEFFFF" transform="matrix(1.00, 0.00, -0.00, -1.00, 486.6, 426.0)">p</text><text xml:space="preserve" font-family="Helvetica-Light" font-size="52.0" fill="#FEFFFF" transform="matrix(1.00, 0.00, -0.00, -1.00, 518.4, 426.0)">l</text><text xml:space="preserve" font-family="Helvetica-Light" font-size="52.0" fill="#FEFFFF" transform="matrix(1.00, 0.00, -0.00, -1.00, 529.9, 426.0)">e</text><text xml:space="preserve" font-family="Helvetica-Light" font-size="52.0" fill="#FEFFFF" transform="matrix(1.00, 0.00, -0.00, -1.00, 558.9, 426.0)"> </text><text xml:space="preserve" font-family="Helvetica-Light" font-size="52.0" fill="#FEFFFF" transform="matrix(1.00, 0.00, -0.00, -1.00, 573.3, 426.0)">t</text><text xml:space="preserve" font-family="Helvetica-Light" font-size="52.0" fill="#FEFFFF" transform="matrix(1.00, 0.00, -0.00, -1.00, 587.8, 426.0)">o</text><text xml:space="preserve" font-family="Helvetica-Light" font-size="52.0" fill="#FEFFFF" transform="matrix(1.00, 0.00, -0.00, -1.00, 616.7, 426.0)"> </text><text xml:space="preserve" font-family="Helvetica-Light" font-size="52.0" fill="#FEFFFF" transform="matrix(1.00, 0.00, -0.00, -1.00, 631.1, 426.0)">U</text><text xml:space="preserve" font-family="Helvetica-Light" font-size="52.0" fill="#FEFFFF" transform="matrix(1.00, 0.00, -0.00, -1.00, 668.7, 426.0)">s</text><text xml:space="preserve" font-family="Helvetica-Light" font-size="52.0" fill="#FEFFFF" transform="matrix(1.00, 0.00, -0.00, -1.00, 694.7, 426.0)">e</text><text xml:space="preserve" font-family="Helvetica-Light" font-size="52.0" fill="#FEFFFF" transform="matrix(1.00, 0.00, -0.00, -1.00, 723.6, 426.0)"> </text><text xml:space="preserve" font-family="Helvetica-Light" font-size="39.0" fill="#FEFFFF" transform="matrix(1.00, 0.00, -0.00, -1.00, 351.1, 309.1)">•</text><text xml:space="preserve" font-family="Helvetica-Light" font-size="52.0" fill="#FEFFFF" transform="matrix(1.00, 0.00, -0.00, -1.00, 400.0, 305.0)">A</text><text xml:space="preserve" font-family="Helvetica-Light" font-size="52.0" fill="#FEFFFF" transform="matrix(1.00, 0.00, -0.00, -1.00, 434.7, 305.0)">d</text><text xml:space="preserve" font-family="Helvetica-Light" font-size="52.0" fill="#FEFFFF" transform="matrix(1.00, 0.00, -0.00, -1.00, 466.5, 305.0)">v</text><text xml:space="preserve" font-family="Helvetica-Light" font-size="52.0" fill="#FEFFFF" transform="matrix(1.00, 0.00, -0.00, -1.00, 492.5, 305.0)">a</text><text xml:space="preserve" font-family="Helvetica-Light" font-size="52.0" fill="#FEFFFF" transform="matrix(1.00, 0.00, -0.00, -1.00, 521.4, 305.0)">n</text><text xml:space="preserve" font-family="Helvetica-Light" font-size="52.0" fill="#FEFFFF" transform="matrix(1.00, 0.00, -0.00, -1.00, 550.3, 305.0)">c</text><text xml:space="preserve" font-family="Helvetica-Light" font-size="52.0" fill="#FEFFFF" transform="matrix(1.00, 0.00, -0.00, -1.00, 579.2, 305.0)">e</text><text xml:space="preserve" font-family="Helvetica-Light" font-size="52.0" fill="#FEFFFF" transform="matrix(1.00, 0.00, -0.00, -1.00, 608.1, 305.0)">d</text><text xml:space="preserve" font-family="Helvetica-Light" font-size="52.0" fill="#FEFFFF" transform="matrix(1.00, 0.00, -0.00, -1.00, 639.9, 305.0)"> </text><text xml:space="preserve" font-family="Helvetica-Light" font-size="39.0" fill="#FEFFFF" transform="matrix(1.00, 0.00, -0.00, -1.00, 351.1, 188.0)">•</text><text xml:space="preserve" font-family="Helvetica-Light" font-size="52.0" fill="#FEFFFF" transform="matrix(1.00, 0.00, -0.00, -1.00, 400.0, 184.0)">T</text><text xml:space="preserve" font-family="Helvetica-Light" font-size="52.0" fill="#FEFFFF" transform="matrix(1.00, 0.00, -0.00, -1.00, 424.1, 184.0)">r</text><text xml:space="preserve" font-family="Helvetica-Light" font-size="52.0" fill="#FEFFFF" transform="matrix(1.00, 0.00, -0.00, -1.00, 441.4, 184.0)">u</text><text xml:space="preserve" font-family="Helvetica-Light" font-size="52.0" fill="#FEFFFF" transform="matrix(1.00, 0.00, -0.00, -1.00, 470.4, 184.0)">s</text><text xml:space="preserve" font-family="Helvetica-Light" font-size="52.0" fill="#FEFFFF" transform="matrix(1.00, 0.00, -0.00, -1.00, 496.4, 184.0)">t</text><text xml:space="preserve" font-family="Helvetica-Light" font-size="52.0" fill="#FEFFFF" transform="matrix(1.00, 0.00, -0.00, -1.00, 510.8, 184.0)">e</text><text xml:space="preserve" font-family="Helvetica-Light" font-size="52.0" fill="#FEFFFF" transform="matrix(1.00, 0.00, -0.00, -1.00, 539.7, 184.0)">d</text></g></svg>