<?xml version="1.0" encoding="UTF-8" standalone="no"?><svg xmlns="http://www.w3.org/2000/svg" xmlns:xlink="http://www.w3.org/1999/xlink" clip-rule="evenodd" stroke-miterlimit="4.00" viewBox="0 0 1920 1080"><desc>SVG generated by Keynote</desc><defs></defs><g transform="matrix(1.00, 0.00, -0.00, -1.00, 0.0, 1080.0)"><g><clipPath id="clip-54"><path d="M 0.0 1080.0 L 1920.0 1080.0 L 1920.0 0.0 L 0.0 0.0 Z M 0.0 1080.0 "></path></clipPath><g clip-path="url(#clip-54)"><image xlink:href="../../06DBE9C8-52A0-453A-A7BF-EBF58CF01F35/assets/54F498DCE8E9310272AD5A0F2668F575.jpeg" width="1365.00" height="1023.00" transform="matrix(1.41, 0.00, -0.00, -1.06, 0.0, 1080.0)"></image></g></g><text xml:space="preserve" font-family="Helvetica-Light" font-size="112.0" fill="#FEFFFF" transform="matrix(1.00, 0.00, -0.00, -1.00, 608.0, 876.0)">M</text><text xml:space="preserve" font-family="Helvetica-Light" font-size="112.0" fill="#FEFFFF" transform="matrix(1.00, 0.00, -0.00, -1.00, 701.3, 876.0)">u</text><text xml:space="preserve" font-family="Helvetica-Light" font-size="112.0" fill="#FEFFFF" transform="matrix(1.00, 0.00, -0.00, -1.00, 763.6, 876.0)">s</text><text xml:space="preserve" font-family="Helvetica-Light" font-size="112.0" fill="#FEFFFF" transform="matrix(1.00, 0.00, -0.00, -1.00, 819.6, 876.0)">t</text><text xml:space="preserve" font-family="Helvetica-Light" font-size="112.0" fill="#FEFFFF" transform="matrix(1.00, 0.00, -0.00, -1.00, 850.7, 876.0)"> </text><text xml:space="preserve" font-family="Helvetica-Light" font-size="112.0" fill="#FEFFFF" transform="matrix(1.00, 0.00, -0.00, -1.00, 881.8, 876.0)">u</text><text xml:space="preserve" font-family="Helvetica-Light" font-size="112.0" fill="#FEFFFF" transform="matrix(1.00, 0.00, -0.00, -1.00, 944.1, 876.0)">s</text><text xml:space="preserve" font-family="Helvetica-Light" font-size="112.0" fill="#FEFFFF" transform="matrix(1.00, 0.00, -0.00, -1.00, 1000.1, 876.0)">e</text><text xml:space="preserve" font-family="Helvetica-Light" font-size="112.0" fill="#FEFFFF" transform="matrix(1.00, 0.00, -0.00, -1.00, 1062.4, 876.0)"> </text><text xml:space="preserve" font-family="Helvetica-Light" font-size="112.0" fill="#FEFFFF" transform="matrix(1.00, 0.00, -0.00, -1.00, 1093.5, 876.0)">V</text><text xml:space="preserve" font-family="Helvetica-Light" font-size="112.0" fill="#FEFFFF" transform="matrix(1.00, 0.00, -0.00, -1.00, 1162.0, 876.0)">P</text><text xml:space="preserve" font-family="Helvetica-Light" font-size="112.0" fill="#FEFFFF" transform="matrix(1.00, 0.00, -0.00, -1.00, 1230.4, 876.0)">N</text><text xml:space="preserve" font-family="Helvetica-Light" font-size="39.0" fill="#FEFFFF" transform="matrix(1.00, 0.00, -0.00, -1.00, 351.1, 552.0)">•</text><text xml:space="preserve" font-family="Helvetica-Light" font-size="52.0" fill="#FEFFFF" transform="matrix(1.00, 0.00, -0.00, -1.00, 400.0, 547.0)">R</text><text xml:space="preserve" font-family="Helvetica-Light" font-size="52.0" fill="#FEFFFF" transform="matrix(1.00, 0.00, -0.00, -1.00, 434.7, 547.0)">e</text><text xml:space="preserve" font-family="Helvetica-Light" font-size="52.0" fill="#FEFFFF" transform="matrix(1.00, 0.00, -0.00, -1.00, 463.6, 547.0)">a</text><text xml:space="preserve" font-family="Helvetica-Light" font-size="52.0" fill="#FEFFFF" transform="matrix(1.00, 0.00, -0.00, -1.00, 492.5, 547.0)">l</text><text xml:space="preserve" font-family="Helvetica-Light" font-size="52.0" fill="#FEFFFF" transform="matrix(1.00, 0.00, -0.00, -1.00, 504.1, 547.0)">m</text><text xml:space="preserve" font-family="Helvetica-Light" font-size="52.0" fill="#FEFFFF" transform="matrix(1.00, 0.00, -0.00, -1.00, 547.4, 547.0)"> </text><text xml:space="preserve" font-family="Helvetica-Light" font-size="52.0" fill="#FEFFFF" transform="matrix(1.00, 0.00, -0.00, -1.00, 561.8, 547.0)">h</text><text xml:space="preserve" font-family="Helvetica-Light" font-size="52.0" fill="#FEFFFF" transform="matrix(1.00, 0.00, -0.00, -1.00, 590.7, 547.0)">o</text><text xml:space="preserve" font-family="Helvetica-Light" font-size="52.0" fill="#FEFFFF" transform="matrix(1.00, 0.00, -0.00, -1.00, 619.6, 547.0)">s</text><text xml:space="preserve" font-family="Helvetica-Light" font-size="52.0" fill="#FEFFFF" transform="matrix(1.00, 0.00, -0.00, -1.00, 645.6, 547.0)">t</text><text xml:space="preserve" font-family="Helvetica-Light" font-size="52.0" fill="#FEFFFF" transform="matrix(1.00, 0.00, -0.00, -1.00, 660.1, 547.0)">s</text><text xml:space="preserve" font-family="Helvetica-Light" font-size="52.0" fill="#FEFFFF" transform="matrix(1.00, 0.00, -0.00, -1.00, 686.1, 547.0)"> </text><text xml:space="preserve" font-family="Helvetica-Light" font-size="52.0" fill="#FEFFFF" transform="matrix(1.00, 0.00, -0.00, -1.00, 700.6, 547.0)">i</text><text xml:space="preserve" font-family="Helvetica-Light" font-size="52.0" fill="#FEFFFF" transform="matrix(1.00, 0.00, -0.00, -1.00, 712.1, 547.0)">t</text><text xml:space="preserve" font-family="Helvetica-Light" font-size="52.0" fill="#FEFFFF" transform="matrix(1.00, 0.00, -0.00, -1.00, 726.6, 547.0)">s</text><text xml:space="preserve" font-family="Helvetica-Light" font-size="52.0" fill="#FEFFFF" transform="matrix(1.00, 0.00, -0.00, -1.00, 752.6, 547.0)"> </text><text xml:space="preserve" font-family="Helvetica-Light" font-size="52.0" fill="#FEFFFF" transform="matrix(1.00, 0.00, -0.00, -1.00, 767.0, 547.0)">c</text><text xml:space="preserve" font-family="Helvetica-Light" font-size="52.0" fill="#FEFFFF" transform="matrix(1.00, 0.00, -0.00, -1.00, 795.9, 547.0)">o</text><text xml:space="preserve" font-family="Helvetica-Light" font-size="52.0" fill="#FEFFFF" transform="matrix(1.00, 0.00, -0.00, -1.00, 824.8, 547.0)">r</text><text xml:space="preserve" font-family="Helvetica-Light" font-size="52.0" fill="#FEFFFF" transform="matrix(1.00, 0.00, -0.00, -1.00, 841.2, 547.0)">e</text><text xml:space="preserve" font-family="Helvetica-Light" font-size="52.0" fill="#FEFFFF" transform="matrix(1.00, 0.00, -0.00, -1.00, 870.1, 547.0)"> </text><text xml:space="preserve" font-family="Helvetica-Light" font-size="52.0" fill="#FEFFFF" transform="matrix(1.00, 0.00, -0.00, -1.00, 884.6, 547.0)">b</text><text xml:space="preserve" font-family="Helvetica-Light" font-size="52.0" fill="#FEFFFF" transform="matrix(1.00, 0.00, -0.00, -1.00, 916.4, 547.0)">i</text><text xml:space="preserve" font-family="Helvetica-Light" font-size="52.0" fill="#FEFFFF" transform="matrix(1.00, 0.00, -0.00, -1.00, 927.9, 547.0)">n</text><text xml:space="preserve" font-family="Helvetica-Light" font-size="52.0" fill="#FEFFFF" transform="matrix(1.00, 0.00, -0.00, -1.00, 956.8, 547.0)">a</text><text xml:space="preserve" font-family="Helvetica-Light" font-size="52.0" fill="#FEFFFF" transform="matrix(1.00, 0.00, -0.00, -1.00, 985.7, 547.0)">r</text><text xml:space="preserve" font-family="Helvetica-Light" font-size="52.0" fill="#FEFFFF" transform="matrix(1.00, 0.00, -0.00, -1.00, 1003.0, 547.0)">i</text><text xml:space="preserve" font-family="Helvetica-Light" font-size="52.0" fill="#FEFFFF" transform="matrix(1.00, 0.00, -0.00, -1.00, 1014.6, 547.0)">e</text><text xml:space="preserve" font-family="Helvetica-Light" font-size="52.0" fill="#FEFFFF" transform="matrix(1.00, 0.00, -0.00, -1.00, 1043.5, 547.0)">s</text><text xml:space="preserve" font-family="Helvetica-Light" font-size="52.0" fill="#FEFFFF" transform="matrix(1.00, 0.00, -0.00, -1.00, 1069.5, 547.0)"> </text><text xml:space="preserve" font-family="Helvetica-Light" font-size="52.0" fill="#FEFFFF" transform="matrix(1.00, 0.00, -0.00, -1.00, 1084.0, 547.0)">o</text><text xml:space="preserve" font-family="Helvetica-Light" font-size="52.0" fill="#FEFFFF" transform="matrix(1.00, 0.00, -0.00, -1.00, 1112.9, 547.0)">n</text><text xml:space="preserve" font-family="Helvetica-Light" font-size="52.0" fill="#FEFFFF" transform="matrix(1.00, 0.00, -0.00, -1.00, 1141.8, 547.0)"> </text><text xml:space="preserve" font-family="Helvetica-Light" font-size="52.0" fill="#FEFFFF" transform="matrix(1.00, 0.00, -0.00, -1.00, 1156.2, 547.0)">A</text><text xml:space="preserve" font-family="Helvetica-Light" font-size="52.0" fill="#FEFFFF" transform="matrix(1.00, 0.00, -0.00, -1.00, 1189.0, 547.0)">W</text><text xml:space="preserve" font-family="Helvetica-Light" font-size="52.0" fill="#FEFFFF" transform="matrix(1.00, 0.00, -0.00, -1.00, 1235.2, 547.0)">S</text><text xml:space="preserve" font-family="Helvetica-Light" font-size="52.0" fill="#FEFFFF" transform="matrix(1.00, 0.00, -0.00, -1.00, 1267.0, 547.0)"> </text><text xml:space="preserve" font-family="Helvetica-Light" font-size="52.0" fill="#FEFFFF" transform="matrix(1.00, 0.00, -0.00, -1.00, 1281.5, 547.0)">S</text><text xml:space="preserve" font-family="Helvetica-Light" font-size="52.0" fill="#FEFFFF" transform="matrix(1.00, 0.00, -0.00, -1.00, 1313.2, 547.0)">3</text><text xml:space="preserve" font-family="Helvetica-Light" font-size="52.0" fill="#FEFFFF" transform="matrix(1.00, 0.00, -0.00, -1.00, 1342.1, 547.0)"> </text><text xml:space="preserve" font-family="Helvetica-Light" font-size="39.0" fill="#FEFFFF" transform="matrix(1.00, 0.00, -0.00, -1.00, 351.1, 430.9)">•</text><text xml:space="preserve" font-family="Helvetica-Light" font-size="52.0" fill="#FEFFFF" transform="matrix(1.00, 0.00, -0.00, -1.00, 400.0, 426.0)">C</text><text xml:space="preserve" font-family="Helvetica-Light" font-size="52.0" fill="#FEFFFF" transform="matrix(1.00, 0.00, -0.00, -1.00, 437.5, 426.0)">o</text><text xml:space="preserve" font-family="Helvetica-Light" font-size="52.0" fill="#FEFFFF" transform="matrix(1.00, 0.00, -0.00, -1.00, 466.5, 426.0)">n</text><text xml:space="preserve" font-family="Helvetica-Light" font-size="52.0" fill="#FEFFFF" transform="matrix(1.00, 0.00, -0.00, -1.00, 495.4, 426.0)">n</text><text xml:space="preserve" font-family="Helvetica-Light" font-size="52.0" fill="#FEFFFF" transform="matrix(1.00, 0.00, -0.00, -1.00, 524.3, 426.0)">e</text><text xml:space="preserve" font-family="Helvetica-Light" font-size="52.0" fill="#FEFFFF" transform="matrix(1.00, 0.00, -0.00, -1.00, 553.2, 426.0)">c</text><text xml:space="preserve" font-family="Helvetica-Light" font-size="52.0" fill="#FEFFFF" transform="matrix(1.00, 0.00, -0.00, -1.00, 582.1, 426.0)">t</text><text xml:space="preserve" font-family="Helvetica-Light" font-size="52.0" fill="#FEFFFF" transform="matrix(1.00, 0.00, -0.00, -1.00, 596.6, 426.0)"> </text><text xml:space="preserve" font-family="Helvetica-Light" font-size="52.0" fill="#FEFFFF" transform="matrix(1.00, 0.00, -0.00, -1.00, 611.0, 426.0)">t</text><text xml:space="preserve" font-family="Helvetica-Light" font-size="52.0" fill="#FEFFFF" transform="matrix(1.00, 0.00, -0.00, -1.00, 625.5, 426.0)">o</text><text xml:space="preserve" font-family="Helvetica-Light" font-size="52.0" fill="#FEFFFF" transform="matrix(1.00, 0.00, -0.00, -1.00, 654.4, 426.0)"> </text><text xml:space="preserve" font-family="Helvetica-Light" font-size="52.0" fill="#FEFFFF" transform="matrix(1.00, 0.00, -0.00, -1.00, 668.8, 426.0)">V</text><text xml:space="preserve" font-family="Helvetica-Light" font-size="52.0" fill="#FEFFFF" transform="matrix(1.00, 0.00, -0.00, -1.00, 700.6, 426.0)">P</text><text xml:space="preserve" font-family="Helvetica-Light" font-size="52.0" fill="#FEFFFF" transform="matrix(1.00, 0.00, -0.00, -1.00, 732.4, 426.0)">N</text><text xml:space="preserve" font-family="Helvetica-Light" font-size="52.0" fill="#FEFFFF" transform="matrix(1.00, 0.00, -0.00, -1.00, 769.9, 426.0)"> </text><text xml:space="preserve" font-family="Helvetica-Light" font-size="52.0" fill="#FEFFFF" transform="matrix(1.00, 0.00, -0.00, -1.00, 784.4, 426.0)">b</text><text xml:space="preserve" font-family="Helvetica-Light" font-size="52.0" fill="#FEFFFF" transform="matrix(1.00, 0.00, -0.00, -1.00, 816.2, 426.0)">e</text><text xml:space="preserve" font-family="Helvetica-Light" font-size="52.0" fill="#FEFFFF" transform="matrix(1.00, 0.00, -0.00, -1.00, 845.1, 426.0)">f</text><text xml:space="preserve" font-family="Helvetica-Light" font-size="52.0" fill="#FEFFFF" transform="matrix(1.00, 0.00, -0.00, -1.00, 859.5, 426.0)">o</text><text xml:space="preserve" font-family="Helvetica-Light" font-size="52.0" fill="#FEFFFF" transform="matrix(1.00, 0.00, -0.00, -1.00, 888.4, 426.0)">r</text><text xml:space="preserve" font-family="Helvetica-Light" font-size="52.0" fill="#FEFFFF" transform="matrix(1.00, 0.00, -0.00, -1.00, 904.8, 426.0)">e</text><text xml:space="preserve" font-family="Helvetica-Light" font-size="52.0" fill="#FEFFFF" transform="matrix(1.00, 0.00, -0.00, -1.00, 933.7, 426.0)"> </text><text xml:space="preserve" font-family="Helvetica-Light" font-size="52.0" fill="#FEFFFF" transform="matrix(1.00, 0.00, -0.00, -1.00, 948.2, 426.0)">c</text><text xml:space="preserve" font-family="Helvetica-Light" font-size="52.0" fill="#FEFFFF" transform="matrix(1.00, 0.00, -0.00, -1.00, 977.1, 426.0)">o</text><text xml:space="preserve" font-family="Helvetica-Light" font-size="52.0" fill="#FEFFFF" transform="matrix(1.00, 0.00, -0.00, -1.00, 1006.0, 426.0)">m</text><text xml:space="preserve" font-family="Helvetica-Light" font-size="52.0" fill="#FEFFFF" transform="matrix(1.00, 0.00, -0.00, -1.00, 1049.3, 426.0)">p</text><text xml:space="preserve" font-family="Helvetica-Light" font-size="52.0" fill="#FEFFFF" transform="matrix(1.00, 0.00, -0.00, -1.00, 1081.1, 426.0)">i</text><text xml:space="preserve" font-family="Helvetica-Light" font-size="52.0" fill="#FEFFFF" transform="matrix(1.00, 0.00, -0.00, -1.00, 1092.6, 426.0)">l</text><text xml:space="preserve" font-family="Helvetica-Light" font-size="52.0" fill="#FEFFFF" transform="matrix(1.00, 0.00, -0.00, -1.00, 1104.2, 426.0)">i</text><text xml:space="preserve" font-family="Helvetica-Light" font-size="52.0" fill="#FEFFFF" transform="matrix(1.00, 0.00, -0.00, -1.00, 1115.7, 426.0)">n</text><text xml:space="preserve" font-family="Helvetica-Light" font-size="52.0" fill="#FEFFFF" transform="matrix(1.00, 0.00, -0.00, -1.00, 1144.6, 426.0)">g</text><text xml:space="preserve" font-family="Helvetica-Light" font-size="52.0" fill="#FEFFFF" transform="matrix(1.00, 0.00, -0.00, -1.00, 1176.4, 426.0)"> </text><text xml:space="preserve" font-family="Helvetica-Light" font-size="52.0" fill="#FEFFFF" transform="matrix(1.00, 0.00, -0.00, -1.00, 1190.9, 426.0)">i</text><text xml:space="preserve" font-family="Helvetica-Light" font-size="52.0" fill="#FEFFFF" transform="matrix(1.00, 0.00, -0.00, -1.00, 1202.4, 426.0)">n</text><text xml:space="preserve" font-family="Helvetica-Light" font-size="52.0" fill="#FEFFFF" transform="matrix(1.00, 0.00, -0.00, -1.00, 1231.3, 426.0)"> </text><text xml:space="preserve" font-family="Helvetica-Light" font-size="52.0" fill="#FEFFFF" transform="matrix(1.00, 0.00, -0.00, -1.00, 1245.8, 426.0)">X</text><text xml:space="preserve" font-family="Helvetica-Light" font-size="52.0" fill="#FEFFFF" transform="matrix(1.00, 0.00, -0.00, -1.00, 1277.6, 426.0)">c</text><text xml:space="preserve" font-family="Helvetica-Light" font-size="52.0" fill="#FEFFFF" transform="matrix(1.00, 0.00, -0.00, -1.00, 1306.5, 426.0)">o</text><text xml:space="preserve" font-family="Helvetica-Light" font-size="52.0" fill="#FEFFFF" transform="matrix(1.00, 0.00, -0.00, -1.00, 1335.4, 426.0)">d</text><text xml:space="preserve" font-family="Helvetica-Light" font-size="52.0" fill="#FEFFFF" transform="matrix(1.00, 0.00, -0.00, -1.00, 1367.1, 426.0)">e</text><text xml:space="preserve" font-family="Helvetica-Light" font-size="52.0" fill="#FEFFFF" transform="matrix(1.00, 0.00, -0.00, -1.00, 1396.1, 426.0)"> </text><text xml:space="preserve" font-family="Helvetica-Light" font-size="39.0" fill="#FEFFFF" transform="matrix(1.00, 0.00, -0.00, -1.00, 351.1, 309.8)">•</text><text xml:space="preserve" font-family="Helvetica-Light" font-size="52.0" fill="#FEFFFF" transform="matrix(1.00, 0.00, -0.00, -1.00, 400.0, 305.0)">S</text><text xml:space="preserve" font-family="Helvetica-Light" font-size="52.0" fill="#FEFFFF" transform="matrix(1.00, 0.00, -0.00, -1.00, 431.8, 305.0)">h</text><text xml:space="preserve" font-family="Helvetica-Light" font-size="52.0" fill="#FEFFFF" transform="matrix(1.00, 0.00, -0.00, -1.00, 460.7, 305.0)">a</text><text xml:space="preserve" font-family="Helvetica-Light" font-size="52.0" fill="#FEFFFF" transform="matrix(1.00, 0.00, -0.00, -1.00, 489.6, 305.0)">d</text><text xml:space="preserve" font-family="Helvetica-Light" font-size="52.0" fill="#FEFFFF" transform="matrix(1.00, 0.00, -0.00, -1.00, 521.4, 305.0)">o</text><text xml:space="preserve" font-family="Helvetica-Light" font-size="52.0" fill="#FEFFFF" transform="matrix(1.00, 0.00, -0.00, -1.00, 550.3, 305.0)">w</text><text xml:space="preserve" font-family="Helvetica-Light" font-size="52.0" fill="#FEFFFF" transform="matrix(1.00, 0.00, -0.00, -1.00, 587.8, 305.0)">s</text><text xml:space="preserve" font-family="Helvetica-Light" font-size="52.0" fill="#FEFFFF" transform="matrix(1.00, 0.00, -0.00, -1.00, 613.8, 305.0)">o</text><text xml:space="preserve" font-family="Helvetica-Light" font-size="52.0" fill="#FEFFFF" transform="matrix(1.00, 0.00, -0.00, -1.00, 642.7, 305.0)">c</text><text xml:space="preserve" font-family="Helvetica-Light" font-size="52.0" fill="#FEFFFF" transform="matrix(1.00, 0.00, -0.00, -1.00, 671.6, 305.0)">k</text><text xml:space="preserve" font-family="Helvetica-Light" font-size="52.0" fill="#FEFFFF" transform="matrix(1.00, 0.00, -0.00, -1.00, 697.6, 305.0)">s</text><text xml:space="preserve" font-family="Helvetica-Light" font-size="52.0" fill="#FEFFFF" transform="matrix(1.00, 0.00, -0.00, -1.00, 723.6, 305.0)"> </text><text xml:space="preserve" font-family="Helvetica-Light" font-size="52.0" fill="#FEFFFF" transform="matrix(1.00, 0.00, -0.00, -1.00, 738.1, 305.0)">m</text><text xml:space="preserve" font-family="Helvetica-Light" font-size="52.0" fill="#FEFFFF" transform="matrix(1.00, 0.00, -0.00, -1.00, 781.4, 305.0)">i</text><text xml:space="preserve" font-family="Helvetica-Light" font-size="52.0" fill="#FEFFFF" transform="matrix(1.00, 0.00, -0.00, -1.00, 793.0, 305.0)">g</text><text xml:space="preserve" font-family="Helvetica-Light" font-size="52.0" fill="#FEFFFF" transform="matrix(1.00, 0.00, -0.00, -1.00, 824.7, 305.0)">h</text><text xml:space="preserve" font-family="Helvetica-Light" font-size="52.0" fill="#FEFFFF" transform="matrix(1.00, 0.00, -0.00, -1.00, 853.6, 305.0)">t</text><text xml:space="preserve" font-family="Helvetica-Light" font-size="52.0" fill="#FEFFFF" transform="matrix(1.00, 0.00, -0.00, -1.00, 868.1, 305.0)"> </text><text xml:space="preserve" font-family="Helvetica-Light" font-size="52.0" fill="#FEFFFF" transform="matrix(1.00, 0.00, -0.00, -1.00, 882.6, 305.0)">n</text><text xml:space="preserve" font-family="Helvetica-Light" font-size="52.0" fill="#FEFFFF" transform="matrix(1.00, 0.00, -0.00, -1.00, 911.5, 305.0)">o</text><text xml:space="preserve" font-family="Helvetica-Light" font-size="52.0" fill="#FEFFFF" transform="matrix(1.00, 0.00, -0.00, -1.00, 940.4, 305.0)">t</text><text xml:space="preserve" font-family="Helvetica-Light" font-size="52.0" fill="#FEFFFF" transform="matrix(1.00, 0.00, -0.00, -1.00, 954.8, 305.0)"> </text><text xml:space="preserve" font-family="Helvetica-Light" font-size="52.0" fill="#FEFFFF" transform="matrix(1.00, 0.00, -0.00, -1.00, 969.3, 305.0)">w</text><text xml:space="preserve" font-family="Helvetica-Light" font-size="52.0" fill="#FEFFFF" transform="matrix(1.00, 0.00, -0.00, -1.00, 1006.8, 305.0)">o</text><text xml:space="preserve" font-family="Helvetica-Light" font-size="52.0" fill="#FEFFFF" transform="matrix(1.00, 0.00, -0.00, -1.00, 1035.8, 305.0)">r</text><text xml:space="preserve" font-family="Helvetica-Light" font-size="52.0" fill="#FEFFFF" transform="matrix(1.00, 0.00, -0.00, -1.00, 1053.1, 305.0)">k</text></g></svg>