<?xml version="1.0" encoding="UTF-8" standalone="no"?><svg xmlns="http://www.w3.org/2000/svg" xmlns:xlink="http://www.w3.org/1999/xlink" clip-rule="evenodd" stroke-miterlimit="4.00" viewBox="0 0 1920 1080"><desc>SVG generated by Keynote</desc><defs></defs><g transform="matrix(1.00, 0.00, -0.00, -1.00, 0.0, 1080.0)"><g><clipPath id="clip-49"><path d="M 0.0 1080.0 L 1920.0 1080.0 L 1920.0 0.0 L 0.0 0.0 Z M 0.0 1080.0 "></path></clipPath><g clip-path="url(#clip-49)"><image xlink:href="../../06DBE9C8-52A0-453A-A7BF-EBF58CF01F35/assets/54F498DCE8E9310272AD5A0F2668F575.jpeg" width="1365.00" height="1023.00" transform="matrix(1.41, 0.00, -0.00, -1.06, 0.0, 1080.0)"></image></g></g><text xml:space="preserve" font-family="Helvetica-Light" font-size="112.0" fill="#FEFFFF" transform="matrix(1.00, 0.00, -0.00, -1.00, 581.0, 499.0)">R</text><text xml:space="preserve" font-family="Helvetica-Light" font-size="112.0" fill="#FEFFFF" transform="matrix(1.00, 0.00, -0.00, -1.00, 655.7, 499.0)">e</text><text xml:space="preserve" font-family="Helvetica-Light" font-size="112.0" fill="#FEFFFF" transform="matrix(1.00, 0.00, -0.00, -1.00, 718.0, 499.0)">a</text><text xml:space="preserve" font-family="Helvetica-Light" font-size="112.0" fill="#FEFFFF" transform="matrix(1.00, 0.00, -0.00, -1.00, 780.2, 499.0)">l</text><text xml:space="preserve" font-family="Helvetica-Light" font-size="112.0" fill="#FEFFFF" transform="matrix(1.00, 0.00, -0.00, -1.00, 805.1, 499.0)">m</text><text xml:space="preserve" font-family="Helvetica-Light" font-size="112.0" fill="#FEFFFF" transform="matrix(1.00, 0.00, -0.00, -1.00, 898.4, 499.0)"> </text><text xml:space="preserve" font-family="Helvetica-Light" font-size="112.0" fill="#FEFFFF" transform="matrix(1.00, 0.00, -0.00, -1.00, 929.5, 499.0)">B</text><text xml:space="preserve" font-family="Helvetica-Light" font-size="112.0" fill="#FEFFFF" transform="matrix(1.00, 0.00, -0.00, -1.00, 1004.2, 499.0)">r</text><text xml:space="preserve" font-family="Helvetica-Light" font-size="112.0" fill="#FEFFFF" transform="matrix(1.00, 0.00, -0.00, -1.00, 1039.5, 499.0)">o</text><text xml:space="preserve" font-family="Helvetica-Light" font-size="112.0" fill="#FEFFFF" transform="matrix(1.00, 0.00, -0.00, -1.00, 1101.8, 499.0)">w</text><text xml:space="preserve" font-family="Helvetica-Light" font-size="112.0" fill="#FEFFFF" transform="matrix(1.00, 0.00, -0.00, -1.00, 1182.7, 499.0)">s</text><text xml:space="preserve" font-family="Helvetica-Light" font-size="112.0" fill="#FEFFFF" transform="matrix(1.00, 0.00, -0.00, -1.00, 1238.7, 499.0)">e</text><text xml:space="preserve" font-family="Helvetica-Light" font-size="112.0" fill="#FEFFFF" transform="matrix(1.00, 0.00, -0.00, -1.00, 1300.9, 499.0)">r</text></g></svg>