<?xml version="1.0" encoding="UTF-8" standalone="no"?><svg xmlns="http://www.w3.org/2000/svg" xmlns:xlink="http://www.w3.org/1999/xlink" clip-rule="evenodd" stroke-miterlimit="4.00" viewBox="0 0 1920 1080"><desc>SVG generated by Keynote</desc><defs></defs><g transform="matrix(1.00, 0.00, -0.00, -1.00, 0.0, 1080.0)"><g><clipPath id="clip-32"><path d="M 0.0 1080.0 L 1920.0 1080.0 L 1920.0 0.0 L 0.0 0.0 Z M 0.0 1080.0 "></path></clipPath><g clip-path="url(#clip-32)"><image xlink:href="../../06DBE9C8-52A0-453A-A7BF-EBF58CF01F35/assets/54F498DCE8E9310272AD5A0F2668F575.jpeg" width="1365.00" height="1023.00" transform="matrix(1.41, 0.00, -0.00, -1.06, 0.0, 1080.0)"></image></g></g><text xml:space="preserve" font-family="Helvetica-Light" font-size="112.0" fill="#FEFFFF" transform="matrix(1.00, 0.00, -0.00, -1.00, 516.0, 876.0)">O</text><text xml:space="preserve" font-family="Helvetica-Light" font-size="112.0" fill="#FEFFFF" transform="matrix(1.00, 0.00, -0.00, -1.00, 603.1, 876.0)">b</text><text xml:space="preserve" font-family="Helvetica-Light" font-size="112.0" fill="#FEFFFF" transform="matrix(1.00, 0.00, -0.00, -1.00, 671.6, 876.0)">j</text><text xml:space="preserve" font-family="Helvetica-Light" font-size="112.0" fill="#FEFFFF" transform="matrix(1.00, 0.00, -0.00, -1.00, 696.4, 876.0)">e</text><text xml:space="preserve" font-family="Helvetica-Light" font-size="112.0" fill="#FEFFFF" transform="matrix(1.00, 0.00, -0.00, -1.00, 758.7, 876.0)">c</text><text xml:space="preserve" font-family="Helvetica-Light" font-size="112.0" fill="#FEFFFF" transform="matrix(1.00, 0.00, -0.00, -1.00, 821.0, 876.0)">t</text><text xml:space="preserve" font-family="Helvetica-Light" font-size="112.0" fill="#FEFFFF" transform="matrix(1.00, 0.00, -0.00, -1.00, 852.1, 876.0)"> </text><text xml:space="preserve" font-family="Helvetica-Light" font-size="112.0" fill="#FEFFFF" transform="matrix(1.00, 0.00, -0.00, -1.00, 883.2, 876.0)">P</text><text xml:space="preserve" font-family="Helvetica-Light" font-size="112.0" fill="#FEFFFF" transform="matrix(1.00, 0.00, -0.00, -1.00, 951.7, 876.0)">r</text><text xml:space="preserve" font-family="Helvetica-Light" font-size="112.0" fill="#FEFFFF" transform="matrix(1.00, 0.00, -0.00, -1.00, 987.0, 876.0)">o</text><text xml:space="preserve" font-family="Helvetica-Light" font-size="112.0" fill="#FEFFFF" transform="matrix(1.00, 0.00, -0.00, -1.00, 1049.2, 876.0)">p</text><text xml:space="preserve" font-family="Helvetica-Light" font-size="112.0" fill="#FEFFFF" transform="matrix(1.00, 0.00, -0.00, -1.00, 1117.7, 876.0)">e</text><text xml:space="preserve" font-family="Helvetica-Light" font-size="112.0" fill="#FEFFFF" transform="matrix(1.00, 0.00, -0.00, -1.00, 1179.9, 876.0)">r</text><text xml:space="preserve" font-family="Helvetica-Light" font-size="112.0" fill="#FEFFFF" transform="matrix(1.00, 0.00, -0.00, -1.00, 1219.2, 876.0)">t</text><text xml:space="preserve" font-family="Helvetica-Light" font-size="112.0" fill="#FEFFFF" transform="matrix(1.00, 0.00, -0.00, -1.00, 1250.4, 876.0)">i</text><text xml:space="preserve" font-family="Helvetica-Light" font-size="112.0" fill="#FEFFFF" transform="matrix(1.00, 0.00, -0.00, -1.00, 1275.2, 876.0)">e</text><text xml:space="preserve" font-family="Helvetica-Light" font-size="112.0" fill="#FEFFFF" transform="matrix(1.00, 0.00, -0.00, -1.00, 1337.5, 876.0)">s</text><text xml:space="preserve" font-family="Helvetica-Light" font-size="39.0" fill="#FEFFFF" transform="matrix(1.00, 0.00, -0.00, -1.00, 349.7, 490.3)">•</text><text xml:space="preserve" font-family="Helvetica-Light" font-size="52.0" fill="#FEFFFF" transform="matrix(1.00, 0.00, -0.00, -1.00, 399.0, 486.0)">O</text><text xml:space="preserve" font-family="Helvetica-Light" font-size="52.0" fill="#FEFFFF" transform="matrix(1.00, 0.00, -0.00, -1.00, 439.5, 486.0)">b</text><text xml:space="preserve" font-family="Helvetica-Light" font-size="52.0" fill="#FEFFFF" transform="matrix(1.00, 0.00, -0.00, -1.00, 471.2, 486.0)">j</text><text xml:space="preserve" font-family="Helvetica-Light" font-size="52.0" fill="#FEFFFF" transform="matrix(1.00, 0.00, -0.00, -1.00, 482.8, 486.0)">e</text><text xml:space="preserve" font-family="Helvetica-Light" font-size="52.0" fill="#FEFFFF" transform="matrix(1.00, 0.00, -0.00, -1.00, 511.7, 486.0)">c</text><text xml:space="preserve" font-family="Helvetica-Light" font-size="52.0" fill="#FEFFFF" transform="matrix(1.00, 0.00, -0.00, -1.00, 540.6, 486.0)">t</text><text xml:space="preserve" font-family="Helvetica-Light" font-size="52.0" fill="#FEFFFF" transform="matrix(1.00, 0.00, -0.00, -1.00, 555.1, 486.0)"> </text><text xml:space="preserve" font-family="Helvetica-Light" font-size="52.0" fill="#FEFFFF" transform="matrix(1.00, 0.00, -0.00, -1.00, 569.5, 486.0)"> </text><text xml:space="preserve" font-family="Helvetica-Light" font-size="39.0" fill="#FEFFFF" transform="matrix(1.00, 0.00, -0.00, -1.00, 349.7, 369.2)">•</text><text xml:space="preserve" font-family="Helvetica-Light" font-size="52.0" fill="#FEFFFF" transform="matrix(1.00, 0.00, -0.00, -1.00, 399.0, 365.0)">L</text><text xml:space="preserve" font-family="Helvetica-Light" font-size="52.0" fill="#FEFFFF" transform="matrix(1.00, 0.00, -0.00, -1.00, 427.9, 365.0)">i</text><text xml:space="preserve" font-family="Helvetica-Light" font-size="52.0" fill="#FEFFFF" transform="matrix(1.00, 0.00, -0.00, -1.00, 439.5, 365.0)">s</text><text xml:space="preserve" font-family="Helvetica-Light" font-size="52.0" fill="#FEFFFF" transform="matrix(1.00, 0.00, -0.00, -1.00, 465.5, 365.0)">t</text><text xml:space="preserve" font-family="Helvetica-Light" font-size="52.0" fill="#FEFFFF" transform="matrix(1.00, 0.00, -0.00, -1.00, 479.9, 365.0)"> </text><text xml:space="preserve" font-family="Helvetica-Light" font-size="52.0" fill="#FEFFFF" transform="matrix(1.00, 0.00, -0.00, -1.00, 494.4, 365.0)">(</text><text xml:space="preserve" font-family="Helvetica-Light" font-size="52.0" fill="#FEFFFF" transform="matrix(1.00, 0.00, -0.00, -1.00, 511.7, 365.0)">L</text><text xml:space="preserve" font-family="Helvetica-Light" font-size="52.0" fill="#FEFFFF" transform="matrix(1.00, 0.00, -0.00, -1.00, 540.6, 365.0)">i</text><text xml:space="preserve" font-family="Helvetica-Light" font-size="52.0" fill="#FEFFFF" transform="matrix(1.00, 0.00, -0.00, -1.00, 552.1, 365.0)">s</text><text xml:space="preserve" font-family="Helvetica-Light" font-size="52.0" fill="#FEFFFF" transform="matrix(1.00, 0.00, -0.00, -1.00, 578.1, 365.0)">t</text><text xml:space="preserve" font-family="Helvetica-Light" font-size="52.0" fill="#FEFFFF" transform="matrix(1.00, 0.00, -0.00, -1.00, 592.6, 365.0)">V</text><text xml:space="preserve" font-family="Helvetica-Light" font-size="52.0" fill="#FEFFFF" transform="matrix(1.00, 0.00, -0.00, -1.00, 623.4, 365.0)">i</text><text xml:space="preserve" font-family="Helvetica-Light" font-size="52.0" fill="#FEFFFF" transform="matrix(1.00, 0.00, -0.00, -1.00, 635.0, 365.0)">e</text><text xml:space="preserve" font-family="Helvetica-Light" font-size="52.0" fill="#FEFFFF" transform="matrix(1.00, 0.00, -0.00, -1.00, 663.9, 365.0)">w</text><text xml:space="preserve" font-family="Helvetica-Light" font-size="52.0" fill="#FEFFFF" transform="matrix(1.00, 0.00, -0.00, -1.00, 701.4, 365.0)"> </text><text xml:space="preserve" font-family="Helvetica-Light" font-size="52.0" fill="#FEFFFF" transform="matrix(1.00, 0.00, -0.00, -1.00, 715.9, 365.0)">a</text><text xml:space="preserve" font-family="Helvetica-Light" font-size="52.0" fill="#FEFFFF" transform="matrix(1.00, 0.00, -0.00, -1.00, 744.8, 365.0)">n</text><text xml:space="preserve" font-family="Helvetica-Light" font-size="52.0" fill="#FEFFFF" transform="matrix(1.00, 0.00, -0.00, -1.00, 773.7, 365.0)">d</text><text xml:space="preserve" font-family="Helvetica-Light" font-size="52.0" fill="#FEFFFF" transform="matrix(1.00, 0.00, -0.00, -1.00, 805.5, 365.0)"> </text><text xml:space="preserve" font-family="Helvetica-Light" font-size="52.0" fill="#FEFFFF" transform="matrix(1.00, 0.00, -0.00, -1.00, 819.9, 365.0)">L</text><text xml:space="preserve" font-family="Helvetica-Light" font-size="52.0" fill="#FEFFFF" transform="matrix(1.00, 0.00, -0.00, -1.00, 848.9, 365.0)">i</text><text xml:space="preserve" font-family="Helvetica-Light" font-size="52.0" fill="#FEFFFF" transform="matrix(1.00, 0.00, -0.00, -1.00, 860.4, 365.0)">s</text><text xml:space="preserve" font-family="Helvetica-Light" font-size="52.0" fill="#FEFFFF" transform="matrix(1.00, 0.00, -0.00, -1.00, 886.4, 365.0)">t</text><text xml:space="preserve" font-family="Helvetica-Light" font-size="52.0" fill="#FEFFFF" transform="matrix(1.00, 0.00, -0.00, -1.00, 900.9, 365.0)">V</text><text xml:space="preserve" font-family="Helvetica-Light" font-size="52.0" fill="#FEFFFF" transform="matrix(1.00, 0.00, -0.00, -1.00, 931.7, 365.0)">i</text><text xml:space="preserve" font-family="Helvetica-Light" font-size="52.0" fill="#FEFFFF" transform="matrix(1.00, 0.00, -0.00, -1.00, 943.2, 365.0)">e</text><text xml:space="preserve" font-family="Helvetica-Light" font-size="52.0" fill="#FEFFFF" transform="matrix(1.00, 0.00, -0.00, -1.00, 972.1, 365.0)">w</text><text xml:space="preserve" font-family="Helvetica-Light" font-size="52.0" fill="#FEFFFF" transform="matrix(1.00, 0.00, -0.00, -1.00, 1006.8, 365.0)">.</text><text xml:space="preserve" font-family="Helvetica-Light" font-size="52.0" fill="#FEFFFF" transform="matrix(1.00, 0.00, -0.00, -1.00, 1021.3, 365.0)">D</text><text xml:space="preserve" font-family="Helvetica-Light" font-size="52.0" fill="#FEFFFF" transform="matrix(1.00, 0.00, -0.00, -1.00, 1058.8, 365.0)">a</text><text xml:space="preserve" font-family="Helvetica-Light" font-size="52.0" fill="#FEFFFF" transform="matrix(1.00, 0.00, -0.00, -1.00, 1087.7, 365.0)">t</text><text xml:space="preserve" font-family="Helvetica-Light" font-size="52.0" fill="#FEFFFF" transform="matrix(1.00, 0.00, -0.00, -1.00, 1102.2, 365.0)">a</text><text xml:space="preserve" font-family="Helvetica-Light" font-size="52.0" fill="#FEFFFF" transform="matrix(1.00, 0.00, -0.00, -1.00, 1131.1, 365.0)">S</text><text xml:space="preserve" font-family="Helvetica-Light" font-size="52.0" fill="#FEFFFF" transform="matrix(1.00, 0.00, -0.00, -1.00, 1162.9, 365.0)">o</text><text xml:space="preserve" font-family="Helvetica-Light" font-size="52.0" fill="#FEFFFF" transform="matrix(1.00, 0.00, -0.00, -1.00, 1191.8, 365.0)">u</text><text xml:space="preserve" font-family="Helvetica-Light" font-size="52.0" fill="#FEFFFF" transform="matrix(1.00, 0.00, -0.00, -1.00, 1220.7, 365.0)">r</text><text xml:space="preserve" font-family="Helvetica-Light" font-size="52.0" fill="#FEFFFF" transform="matrix(1.00, 0.00, -0.00, -1.00, 1237.1, 365.0)">c</text><text xml:space="preserve" font-family="Helvetica-Light" font-size="52.0" fill="#FEFFFF" transform="matrix(1.00, 0.00, -0.00, -1.00, 1266.0, 365.0)">e</text><text xml:space="preserve" font-family="Helvetica-Light" font-size="52.0" fill="#FEFFFF" transform="matrix(1.00, 0.00, -0.00, -1.00, 1294.9, 365.0)">)</text></g></svg>